# xmcd
#
# Track frame offsets:
#	150
#	15007
#	32661
#	50424
#	65725
#	79023
#	95369
#	113672
#	130328
#	145994
#	162761
#	180977
#	198865
#
# Disc length: 2892 seconds
# Revision: 1
# Processed by: cddbd v1.5.2PL0 Copyright (c) Steve Scherf et al.
# Submitted via: dBpowerAMP V12.0
#
DISCID=9c0b4a0d
DTITLE=LeAnn Rimes - This Woman
DYEAR=2005
DGENRE=Pop/Country
TTITLE0=I Want to with You
TTITLE1=You Take Me Home
TTITLE2=Something's Gotta Give
TTITLE3=Won't Be Lonely Long
TTITLE4=Nothin' 'Bout Love Makes Sense
TTITLE5=Probably Wouldn't Be This Way
TTITLE6=The Weight of Love
TTITLE7=With You
TTITLE8=I Got It Bad
TTITLE9=I Dare You
TTITLE10=When This Woman Loves a Man
TTITLE11=Some People
TTITLE12=Afraid to Fall
EXTD=
EXTT0=
EXTT1=
EXTT2=
EXTT3=
EXTT4=
EXTT5=
EXTT6=
EXTT7=
EXTT8=
EXTT9=
EXTT10=
EXTT11=
EXTT12=
PLAYORDER=
